<?xml version="1.0" encoding="utf-8"?>
<!-- Generator: Adobe Illustrator 19.0.0, SVG Export Plug-In . SVG Version: 6.00 Build 0)  -->
<svg version="1.1" xmlns="http://www.w3.org/2000/svg" xmlns:xlink="http://www.w3.org/1999/xlink" x="0px" y="0px"
	 viewBox="0 0 1600 1200" style="enable-background:new 0 0 1600 1200;" xml:space="preserve">
<style type="text/css">
	.st0{fill:#F2F2F2;}
	.st1{display:none;clip-path:url(#SVGID_2_);}
	.st2{display:inline;fill:none;stroke:#757575;stroke-width:3.1057;stroke-miterlimit:10;}
	.st3{display:inline;fill:none;stroke:#000000;stroke-width:3.1057;stroke-miterlimit:10;}
</style>
<g id="background">
	<rect width="1600" height="1200"/>
</g>
<g id="solid">
	<g>
		<path class="st0" d="M947.3,699.9c-67.8,33.9-122.5,61.5-184,92.5c-63.5,32.1-82-0.1-82-0.1l-10.7,5.6
			c6.1,48.5,51.5,81.3,117.7,47.8c51.5-26.1,130-64.5,182.9-91.3c63.2-32,72.5,1.8,72.5,1.8l10-5.5
			C1049.4,712.6,1011,668.1,947.3,699.9z"/>
		<path class="st0" d="M621.4,637.3c49.9,0,91.9-42,96.2-84c18.1-15,22.3-27.2,22.3-27.2v45l-19,10.9V597l204-101.2v-16.1l-20,10.4
			l-0.1-93.4l-9.6-5.1c-9.3,11.3-26.8,18.9-44.8,18.9c-19.5,0-34.5-6.6-40.5-13v-70.8c0-25.3,14.5-38.4,30.4-38.4
			c17.6,0,34.6,12.8,38.1,30.9c0,0-6-3-11.7-3c-18.9,0-35.2,15.3-36.5,34.1c-1.3,18.9,12.9,34.1,31.8,34.1s35.9-16.9,35.9-36.8
			c0-45.8-25.7-72.8-66.7-72.8c-41.9,0-91,38.8-91,97.9l-0.1,55.4l-22,11v16.1l22-11v43.8c0,12.6-9.7,32.8-22.8,44.2
			c-5.1-33.6-33.1-58.2-70.8-58.2c-46,0-88.8,36.5-95.7,81.5C543.8,600.8,575.5,637.3,621.4,637.3z M810,417.4c7,3.9,18,7.6,27,7.7
			v98.1l-27,13.7V417.4z M622.4,556.3c0-29.5,4.4-67.8,17.3-67.8c13,0,12.8,38.3,12.8,67.8c0,29.5-4.4,67.8-17.3,67.8
			S622.4,585.8,622.4,556.3z"/>
		<path class="st0" d="M514.8,664.5c15.5-14.8,35.7-24.1,56.7-26.3c-21.5-13-35.3-38-35.3-61.9l-10.1,5.6
			c0,39-35.2,109.6-66.2,126.1V473.6l35-17.9v-16.1l-140,70.3v16.1l35-17.2v233.7l-35,17.5V776l133.2-66.5
			C492.7,692.3,501.9,676.9,514.8,664.5z"/>
		<path class="st0" d="M549.7,704.5c0-26,17.6-42,38.9-42c14.4,0,27.6,5.6,37,15.7c2.2,2.4,4.2,5,5.9,7.7c-3.3-1.2-7-1.9-10.8-1.9
			c-17.9,0-33.4,14.5-34.6,32.4s11.9,32.4,29.7,32.4c19.2,0,34.7-15.3,34.7-35.7c0-34.2-26.2-62.5-61.9-62.5c-0.2,0-0.3,0-0.4,0
			c-0.2,0-0.4,0-0.6,0c-44.3,0-86.9,35.3-86.9,88.6c0,85.9,115.6,118.1,115.6,192.6c0,43-32.4,73.6-76.4,73.6
			c-40.2,0-83.5-36.1-83.5-89.7c0-1.8,0.1-4,0.1-4c3.9,9.9,17.1,19.4,31.7,19.4c22.4,0,41.8-18.1,43.3-40.5
			c1.6-22.4-15.3-40.5-37.7-40.5c-29.3,0-51,30.4-51,66.9c0,59.2,48.5,104.3,108.8,104.3c64.5,0,125.8-51,125.8-123
			C677.5,808.6,549.7,770.1,549.7,704.5z"/>
	</g>
	<path class="st0" d="M1037.5,547.9c0,18.7-8.1,49.3-19.9,49.3c-5.1,0-7.9-4.5-7.9-9.2c0-3.5,0-110.9,0-110.9l-91.1,46.1v16.1
		l20.8-10.6c0,0,0,44.3,0,77.2c0,16.3-10,42.3-20.2,42.3c-5.1,0-7.9-4.5-7.9-9.2c0-3.5,0-112.4,0-112.4L820,572.9V589l20.8-10.6
		c0,0,0,51.1,0,84c0,26.7,17,41.9,39.8,41.9c29.1,0,56-31.1,63.7-68.5c6.7,12.7,19.4,18.9,34.7,18.9c31.3,0,54.2-34.1,61.3-72.3
		L1037.5,547.9z"/>
	<path class="st0" d="M1197.2,540.2c-19.8,0-35.5,14.6-36.8,33.6c-1.3,19,13,33.6,32,33.6c17.6,0,32.2-13.2,35.5-30.2
		c9.7,15.6,13.4,31.8,12.1,51.3c-3.5,50.6-46.2,94.2-94.8,94.2c-26.1,0-37.6-16.5-37.6-42.2V283.9l-12.2-5.2
		c-12,24.6-36.9,40.5-63.5,40.5c-17.3,0-33.1-6.7-44.4-18.9c-11.4-12.2-17-28.5-15.8-45.9c2.5-36.2,34.1-66.4,70.3-66.4
		c4.8,0,9.4,0.5,13.9,1.5c-11.9,5.5-20.6,18-21.5,31.6c-1.3,18.9,13,34.3,31.9,34.3c18.9,0,36.7-16.1,36.7-35
		c0-25.6-26.7-45.2-61-45.2c-43.2,0-80.7,35.1-83.8,78.3c-1.5,21.1,5.4,41.1,19.4,56c13.9,14.9,33.2,23.2,54.3,23.2
		c1.8,0,3.6-0.1,5.4-0.2c0,0,0,229.7,0,291.7c0,68.7,42.8,113.1,100.7,113.1c60.3,0,115.7-50.8,115.7-115.6
		C1253.7,573.3,1222.2,540.2,1197.2,540.2z"/>
	<path class="st0" d="M830.2,664.4c-5.1-33.6-33.1-58.2-70.8-58.2c-46,0-88.8,36.5-95.7,81.5c-6.9,45,24.8,81.5,70.8,81.5
		c49.9,0,91.9-42,96.2-84c18.1-15,22.3-27.2,22.3-27.2v-37.9C853,632.8,843.3,653,830.2,664.4z M765.5,688.3
		c0,29.5-4.4,67.8-17.3,67.8s-12.8-38.3-12.8-67.8c0-29.5,4.4-67.8,17.3-67.8C765.7,620.5,765.5,658.9,765.5,688.3z"/>
</g>
<g id="fill">
	<g>
		<defs>
			<path id="SVGID_1_" d="M737.6,843.5c-13.9,0-26-4.6-34.9-13.2c-3.1-3-5.8-6.3-8.1-10.1c5.5,1.7,11.9,2.9,19.4,2.9c0,0,0,0,0,0
				c16.6,0,35.7-5.5,56.6-16.1l9-4.6c56.8-28.7,110.5-55.8,174.9-88c12.2-6.1,23.7-9.2,34.1-9.2c16.8,0,27.8,8.1,34.2,14.9
				c1.7,1.8,3.2,3.7,4.7,5.7c-3.2-0.6-6.7-0.9-10.5-0.9c-14.8,0-32.6,5.2-52.9,15.5c-26.5,13.4-60,30-92.4,46.1
				c-31.9,15.8-64.8,32.2-90.5,45.2C765.5,839.5,750.9,843.5,737.6,843.5z M606,560.3c0-40.4,6.1-59.2,7.1-62.3
				c-6.6,3.2-47.6,23.5-47.6,72.5c0,32.8,28.8,49.5,47.3,51.2C611.2,617.2,606,597,606,560.3z M701.5,544.3
				c0-30.2-18.1-46.3-38.3-51.9c0.7,2.2,5.8,20.5,5.8,57.9c0,43.3-5.4,57.7-5.6,58.4C678.7,600.7,701.5,577.7,701.5,544.3z
				 M756,561.8l38-18.9V326.8c0-9.5,2-19,5.8-27.3c-6.7,3.6-13,8.2-18.7,13.8c-16.1,15.7-25,36.9-25,59.7L756,561.8z M853,513.6
				l36-17.9l-0.1-78.8c-10.6,5.8-23.1,9.2-35.9,9.6V513.6z M881.9,347.8c0-6.2-0.4-9.2-0.4-9.2s-6.3-6.3-14.7-6.3
				c-10.4,0-20.4,7.7-20.4,19.9c0,9.6,7.9,16.4,15.6,16.4C872.2,368.5,881.9,358.4,881.9,347.8z M406,732.6l38-19V483l-38,19.1
				V732.6z M627.9,974.9c21.7-20.2,33.6-47.4,33.6-76.8c0-41.1-33.6-71.4-66-100.6c-31.7-28.6-61.7-55.6-61.7-93
				c0-5.1,0.6-10.1,1.6-14.9c-12.1,13.2-18.7,30.6-18.7,49.5c0,37.7,27.2,64.2,56.1,92.1c29.3,28.4,59.6,57.8,59.6,100.4
				c0,19.8-5.9,38.2-16.7,53.1C619.9,981.8,624,978.5,627.9,974.9z M515.2,888c0-14.7-11.7-22-21.2-22c-12.8,0-26.3,10.5-30.3,25.5
				c1.2,9.2,10.7,23.2,25.3,23.2C503.1,914.7,515.2,901.9,515.2,888z M634.5,704.1c0,0-4.1-4.5-13.6-4.5c-9.5,0-18.9,9-18.9,18.5
				c0,8.4,5.7,14.6,13.8,14.6C632.6,732.7,636.5,715.4,634.5,704.1z M1091,680.6V311c-10.7,10.2-23.8,17.7-38,21.4v291.8
				c0,40.7,16.8,72.1,44.3,87.2C1093.1,702.8,1091,692.5,1091,680.6z M915.8,664.1c-11.9-1.5-20.8-12-20.8-25v-86.3L857,572v88
				c0,18,9.8,28.3,23.7,28.3C893.2,688.4,906.2,678.8,915.8,664.1z M1013,612.8c-11.1-2.2-19-12.1-19-24.8v-84.8l-39,19.8V612
				c0,18,10.2,26.7,24,26.7C996.5,638.8,1007.8,623,1013,612.8z M1214.1,564.1c-3.4-3.9-11.2-7.8-16.9-7.8
				c-11.3,0-20.7,9.3-20.7,20.4c0,8.7,6.4,14.9,15.8,14.9C1208.5,591.5,1214.1,572.4,1214.1,564.1z M1086.9,220.5
				c0-8.3-5.4-15.9-14.1-21.2c0,0-21.2,6.6-21.2,24.1c0,9.4,7.8,15.8,15.4,15.8C1077.6,239.1,1086.9,230.3,1086.9,220.5z M719,691.3
				c0-40.4,6.1-59.2,7.1-62.3c-6.6,3.2-47.6,23.5-47.6,72.5c0,32.8,28.8,49.5,47.3,51.2C724.2,748.2,719,728,719,691.3z
				 M814.5,675.3c0-30.2-18.1-46.3-38.3-51.9c0.7,2.2,5.8,20.5,5.8,57.9c0,43.3-5.4,57.7-5.6,58.4
				C791.7,731.7,814.5,708.7,814.5,675.3z"/>
		</defs>
		<clipPath id="SVGID_2_">
			<use xlink:href="#SVGID_1_"  style="overflow:visible;"/>
		</clipPath>
		<g class="st1">
			<line class="st2" x1="352.2" y1="448.1" x2="1274.1" y2="-19.6"/>
			<line class="st2" x1="352.2" y1="481.1" x2="1274.1" y2="13.5"/>
			<line class="st2" x1="352.2" y1="514.2" x2="1274.1" y2="46.6"/>
			<line class="st2" x1="352.2" y1="547.3" x2="1274.1" y2="79.6"/>
			<line class="st2" x1="352.2" y1="580.3" x2="1274.1" y2="112.7"/>
			<line class="st2" x1="352.2" y1="613.4" x2="1274.1" y2="145.7"/>
			<line class="st2" x1="352.2" y1="646.4" x2="1274.1" y2="178.8"/>
			<line class="st2" x1="352.2" y1="679.5" x2="1274.1" y2="211.8"/>
			<line class="st2" x1="352.2" y1="712.6" x2="1274.1" y2="244.9"/>
			<line class="st2" x1="352.2" y1="745.6" x2="1274.1" y2="278"/>
			<line class="st2" x1="352.2" y1="778.7" x2="1274.1" y2="311"/>
			<line class="st2" x1="352.2" y1="811.7" x2="1274.1" y2="344.1"/>
			<line class="st2" x1="352.2" y1="844.8" x2="1274.1" y2="377.1"/>
			<line class="st2" x1="352.2" y1="877.8" x2="1274.1" y2="410.2"/>
			<line class="st2" x1="352.2" y1="910.9" x2="1274.1" y2="443.2"/>
			<line class="st2" x1="352.2" y1="944" x2="1274.1" y2="476.3"/>
			<line class="st2" x1="352.2" y1="977" x2="1274.1" y2="509.4"/>
			<line class="st2" x1="352.2" y1="1010.1" x2="1274.1" y2="542.4"/>
			<line class="st2" x1="352.2" y1="1043.1" x2="1274.1" y2="575.5"/>
			<line class="st2" x1="352.2" y1="1076.2" x2="1274.1" y2="608.5"/>
			<line class="st2" x1="352.2" y1="1109.2" x2="1274.1" y2="641.6"/>
			<line class="st2" x1="352.2" y1="1142.3" x2="1274.1" y2="674.7"/>
			<line class="st2" x1="352.2" y1="1175.4" x2="1274.1" y2="707.7"/>
			<line class="st2" x1="352.2" y1="1208.4" x2="1274.1" y2="740.8"/>
			<line class="st2" x1="352.2" y1="464.6" x2="1274.1" y2="-3"/>
			<line class="st2" x1="352.2" y1="497.7" x2="1274.1" y2="30"/>
			<line class="st2" x1="352.2" y1="530.7" x2="1274.1" y2="63.1"/>
			<line class="st2" x1="352.2" y1="563.8" x2="1274.1" y2="96.1"/>
			<line class="st2" x1="352.2" y1="596.8" x2="1274.1" y2="129.2"/>
			<line class="st2" x1="352.2" y1="629.9" x2="1274.1" y2="162.3"/>
			<line class="st2" x1="352.2" y1="663" x2="1274.1" y2="195.3"/>
			<line class="st2" x1="352.2" y1="696" x2="1274.1" y2="228.4"/>
			<line class="st2" x1="352.2" y1="729.1" x2="1274.1" y2="261.4"/>
			<line class="st2" x1="352.2" y1="762.1" x2="1274.1" y2="294.5"/>
			<line class="st2" x1="352.2" y1="795.2" x2="1274.1" y2="327.5"/>
			<line class="st2" x1="352.2" y1="828.3" x2="1274.1" y2="360.6"/>
			<line class="st2" x1="352.2" y1="861.3" x2="1274.1" y2="393.7"/>
			<line class="st2" x1="352.2" y1="894.4" x2="1274.1" y2="426.7"/>
			<line class="st2" x1="352.2" y1="927.4" x2="1274.1" y2="459.8"/>
			<line class="st2" x1="352.2" y1="960.5" x2="1274.1" y2="492.8"/>
			<line class="st2" x1="352.2" y1="993.5" x2="1274.1" y2="525.9"/>
			<line class="st2" x1="352.2" y1="1026.6" x2="1274.1" y2="559"/>
			<line class="st2" x1="352.2" y1="1059.7" x2="1274.1" y2="592"/>
			<line class="st2" x1="352.2" y1="1092.7" x2="1274.1" y2="625.1"/>
			<line class="st2" x1="352.2" y1="1125.8" x2="1274.1" y2="658.1"/>
			<line class="st2" x1="352.2" y1="1158.8" x2="1274.1" y2="691.2"/>
			<line class="st2" x1="352.2" y1="1191.9" x2="1274.1" y2="724.2"/>
			<line class="st2" x1="352.2" y1="1224.9" x2="1274.1" y2="757.3"/>
		</g>
		<g class="st1">
			<line class="st3" x1="352.2" y1="436.2" x2="1274.1" y2="-30.7"/>
			<line class="st3" x1="352.2" y1="469.3" x2="1274.1" y2="2.4"/>
			<line class="st3" x1="352.2" y1="502.3" x2="1274.1" y2="35.5"/>
			<line class="st3" x1="352.2" y1="535.4" x2="1274.1" y2="68.5"/>
			<line class="st3" x1="352.2" y1="568.4" x2="1274.1" y2="101.6"/>
			<line class="st3" x1="352.2" y1="601.5" x2="1274.1" y2="134.6"/>
			<line class="st3" x1="352.2" y1="634.6" x2="1274.1" y2="167.7"/>
			<line class="st3" x1="352.2" y1="667.6" x2="1274.1" y2="200.7"/>
			<line class="st3" x1="352.2" y1="700.7" x2="1274.1" y2="233.8"/>
			<line class="st3" x1="352.2" y1="733.7" x2="1274.1" y2="266.9"/>
			<line class="st3" x1="352.2" y1="766.8" x2="1274.1" y2="299.9"/>
			<line class="st3" x1="352.2" y1="799.8" x2="1274.1" y2="333"/>
			<line class="st3" x1="352.2" y1="832.9" x2="1274.1" y2="366"/>
			<line class="st3" x1="352.2" y1="866" x2="1274.1" y2="399.1"/>
			<line class="st3" x1="352.2" y1="899" x2="1274.1" y2="432.1"/>
			<line class="st3" x1="352.2" y1="932.1" x2="1274.1" y2="465.2"/>
			<line class="st3" x1="352.2" y1="965.1" x2="1274.1" y2="498.3"/>
			<line class="st3" x1="352.2" y1="998.2" x2="1274.1" y2="531.3"/>
			<line class="st3" x1="352.2" y1="1031.2" x2="1274.1" y2="564.4"/>
			<line class="st3" x1="352.2" y1="1064.3" x2="1274.1" y2="597.4"/>
			<line class="st3" x1="352.2" y1="1097.4" x2="1274.1" y2="630.5"/>
			<line class="st3" x1="352.2" y1="1130.4" x2="1274.1" y2="663.5"/>
			<line class="st3" x1="352.2" y1="1163.5" x2="1274.1" y2="696.6"/>
			<line class="st3" x1="352.2" y1="1196.5" x2="1274.1" y2="729.7"/>
			<line class="st3" x1="352.2" y1="452.7" x2="1274.1" y2="-14.1"/>
			<line class="st3" x1="352.2" y1="485.8" x2="1274.1" y2="18.9"/>
			<line class="st3" x1="352.2" y1="518.9" x2="1274.1" y2="52"/>
			<line class="st3" x1="352.2" y1="551.9" x2="1274.1" y2="85"/>
			<line class="st3" x1="352.2" y1="585" x2="1274.1" y2="118.1"/>
			<line class="st3" x1="352.2" y1="618" x2="1274.1" y2="151.2"/>
			<line class="st3" x1="352.2" y1="651.1" x2="1274.1" y2="184.2"/>
			<line class="st3" x1="352.2" y1="684.1" x2="1274.1" y2="217.3"/>
			<line class="st3" x1="352.2" y1="717.2" x2="1274.1" y2="250.3"/>
			<line class="st3" x1="352.2" y1="750.3" x2="1274.1" y2="283.4"/>
			<line class="st3" x1="352.2" y1="783.3" x2="1274.1" y2="316.4"/>
			<line class="st3" x1="352.2" y1="816.4" x2="1274.1" y2="349.5"/>
			<line class="st3" x1="352.2" y1="849.4" x2="1274.1" y2="382.6"/>
			<line class="st3" x1="352.2" y1="882.5" x2="1274.1" y2="415.6"/>
			<line class="st3" x1="352.2" y1="915.5" x2="1274.1" y2="448.7"/>
			<line class="st3" x1="352.2" y1="948.6" x2="1274.1" y2="481.7"/>
			<line class="st3" x1="352.2" y1="981.7" x2="1274.1" y2="514.8"/>
			<line class="st3" x1="352.2" y1="1014.7" x2="1274.1" y2="547.8"/>
			<line class="st3" x1="352.2" y1="1047.8" x2="1274.1" y2="580.9"/>
			<line class="st3" x1="352.2" y1="1080.8" x2="1274.1" y2="614"/>
			<line class="st3" x1="352.2" y1="1113.9" x2="1274.1" y2="647"/>
			<line class="st3" x1="352.2" y1="1146.9" x2="1274.1" y2="680.1"/>
			<line class="st3" x1="352.2" y1="1180" x2="1274.1" y2="713.1"/>
			<line class="st3" x1="352.2" y1="1213.1" x2="1274.1" y2="746.2"/>
		</g>
	</g>
</g>
</svg>
