<?xml version="1.0" encoding="UTF-8" standalone="no"?>
<svg
   xmlns:dc="http://purl.org/dc/elements/1.1/"
   xmlns:cc="http://creativecommons.org/ns#"
   xmlns:rdf="http://www.w3.org/1999/02/22-rdf-syntax-ns#"
   xmlns:svg="http://www.w3.org/2000/svg"
   xmlns="http://www.w3.org/2000/svg"
   xmlns:xlink="http://www.w3.org/1999/xlink"
   xmlns:sodipodi="http://sodipodi.sourceforge.net/DTD/sodipodi-0.dtd"
   xmlns:inkscape="http://www.inkscape.org/namespaces/inkscape"
   inkscape:version="1.0rc1 (09960d6, 2020-04-09)"
   height="846.09998"
   width="898.79999"
   sodipodi:docname="lofisoul.svg"
   id="svg508"
   xml:space="preserve"
   viewBox="0 0 898.79999 846.09998"
   y="0px"
   x="0px"
   version="1.1"><metadata
   id="metadata514"><rdf:RDF><cc:Work
       rdf:about=""><dc:format>image/svg+xml</dc:format><dc:type
         rdf:resource="http://purl.org/dc/dcmitype/StillImage" /><dc:title></dc:title></cc:Work></rdf:RDF></metadata><defs
   id="defs512" /><sodipodi:namedview
   inkscape:current-layer="svg508"
   inkscape:window-maximized="0"
   inkscape:window-y="71"
   inkscape:window-x="0"
   inkscape:cy="369.26281"
   inkscape:cx="47.41405"
   inkscape:zoom="0.50416667"
   showgrid="false"
   id="namedview510"
   inkscape:window-height="752"
   inkscape:window-width="1316"
   inkscape:pageshadow="2"
   inkscape:pageopacity="0"
   guidetolerance="10"
   gridtolerance="10"
   objecttolerance="10"
   borderopacity="1"
   bordercolor="#666666"
   pagecolor="#ffffff" />
<g
   transform="translate(-354.9,-175.2)"
   id="background">
	<rect
   y="0"
   x="0"
   style="fill:none"
   id="rect283"
   height="1200"
   width="1600" />
</g>
<g
   transform="translate(-354.9,-175.2)"
   style="fill:#333333"
   id="solid">
	<g
   style="fill:#333333"
   id="g294">
		<path
   inkscape:connector-curvature="0"
   style="fill:#333333"
   id="path286"
   d="m 947.3,699.9 c -67.8,33.9 -122.5,61.5 -184,92.5 -63.5,32.1 -82,-0.1 -82,-0.1 l -10.7,5.6 c 6.1,48.5 51.5,81.3 117.7,47.8 51.5,-26.1 130,-64.5 182.9,-91.3 63.2,-32 72.5,1.8 72.5,1.8 l 10,-5.5 c -4.3,-38.1 -42.7,-82.6 -106.4,-50.8 z"
   class="st0" />
		<path
   inkscape:connector-curvature="0"
   style="fill:#333333"
   id="path288"
   d="m 621.4,637.3 c 49.9,0 91.9,-42 96.2,-84 18.1,-15 22.3,-27.2 22.3,-27.2 v 45 l -19,10.9 v 15 l 204,-101.2 v -16.1 l -20,10.4 -0.1,-93.4 -9.6,-5.1 c -9.3,11.3 -26.8,18.9 -44.8,18.9 -19.5,0 -34.5,-6.6 -40.5,-13 v -70.8 c 0,-25.3 14.5,-38.4 30.4,-38.4 17.6,0 34.6,12.8 38.1,30.9 0,0 -6,-3 -11.7,-3 -18.9,0 -35.2,15.3 -36.5,34.1 -1.3,18.9 12.9,34.1 31.8,34.1 18.9,0 35.9,-16.9 35.9,-36.8 0,-45.8 -25.7,-72.8 -66.7,-72.8 -41.9,0 -91,38.8 -91,97.9 l -0.1,55.4 -22,11 v 16.1 l 22,-11 V 488 c 0,12.6 -9.7,32.8 -22.8,44.2 -5.1,-33.6 -33.1,-58.2 -70.8,-58.2 -46,0 -88.8,36.5 -95.7,81.5 -7,45.3 24.7,81.8 70.6,81.8 z M 810,417.4 c 7,3.9 18,7.6 27,7.7 v 98.1 l -27,13.7 z M 622.4,556.3 c 0,-29.5 4.4,-67.8 17.3,-67.8 13,0 12.8,38.3 12.8,67.8 0,29.5 -4.4,67.8 -17.3,67.8 -12.9,0 -12.8,-38.3 -12.8,-67.8 z"
   class="st0" />
		<path
   inkscape:connector-curvature="0"
   style="fill:#333333"
   id="path290"
   d="m 514.8,664.5 c 15.5,-14.8 35.7,-24.1 56.7,-26.3 -21.5,-13 -35.3,-38 -35.3,-61.9 l -10.1,5.6 c 0,39 -35.2,109.6 -66.2,126.1 V 473.6 l 35,-17.9 v -16.1 l -140,70.3 V 526 l 35,-17.2 v 233.7 l -35,17.5 v 16 l 133.2,-66.5 c 4.6,-17.2 13.8,-32.6 26.7,-45 z"
   class="st0" />
		<path
   inkscape:connector-curvature="0"
   style="fill:#333333"
   id="path292"
   d="m 549.7,704.5 c 0,-26 17.6,-42 38.9,-42 14.4,0 27.6,5.6 37,15.7 2.2,2.4 4.2,5 5.9,7.7 -3.3,-1.2 -7,-1.9 -10.8,-1.9 -17.9,0 -33.4,14.5 -34.6,32.4 -1.2,17.9 11.9,32.4 29.7,32.4 19.2,0 34.7,-15.3 34.7,-35.7 0,-34.2 -26.2,-62.5 -61.9,-62.5 -0.2,0 -0.3,0 -0.4,0 -0.2,0 -0.4,0 -0.6,0 -44.3,0 -86.9,35.3 -86.9,88.6 0,85.9 115.6,118.1 115.6,192.6 0,43 -32.4,73.6 -76.4,73.6 -40.2,0 -83.5,-36.1 -83.5,-89.7 0,-1.8 0.1,-4 0.1,-4 3.9,9.9 17.1,19.4 31.7,19.4 22.4,0 41.8,-18.1 43.3,-40.5 1.6,-22.4 -15.3,-40.5 -37.7,-40.5 -29.3,0 -51,30.4 -51,66.9 0,59.2 48.5,104.3 108.8,104.3 64.5,0 125.8,-51 125.8,-123 0.1,-89.7 -127.7,-128.2 -127.7,-193.8 z"
   class="st0" />
	</g>
	<path
   inkscape:connector-curvature="0"
   style="fill:#333333"
   id="path296"
   d="m 1037.5,547.9 c 0,18.7 -8.1,49.3 -19.9,49.3 -5.1,0 -7.9,-4.5 -7.9,-9.2 0,-3.5 0,-110.9 0,-110.9 l -91.1,46.1 v 16.1 l 20.8,-10.6 c 0,0 0,44.3 0,77.2 0,16.3 -10,42.3 -20.2,42.3 -5.1,0 -7.9,-4.5 -7.9,-9.2 0,-3.5 0,-112.4 0,-112.4 L 820,572.9 V 589 l 20.8,-10.6 c 0,0 0,51.1 0,84 0,26.7 17,41.9 39.8,41.9 29.1,0 56,-31.1 63.7,-68.5 6.7,12.7 19.4,18.9 34.7,18.9 31.3,0 54.2,-34.1 61.3,-72.3 z"
   class="st0" />
	<path
   inkscape:connector-curvature="0"
   style="fill:#333333"
   id="path298"
   d="m 1197.2,540.2 c -19.8,0 -35.5,14.6 -36.8,33.6 -1.3,19 13,33.6 32,33.6 17.6,0 32.2,-13.2 35.5,-30.2 9.7,15.6 13.4,31.8 12.1,51.3 -3.5,50.6 -46.2,94.2 -94.8,94.2 -26.1,0 -37.6,-16.5 -37.6,-42.2 V 283.9 l -12.2,-5.2 c -12,24.6 -36.9,40.5 -63.5,40.5 -17.3,0 -33.1,-6.7 -44.4,-18.9 -11.4,-12.2 -17,-28.5 -15.8,-45.9 2.5,-36.2 34.1,-66.4 70.3,-66.4 4.8,0 9.4,0.5 13.9,1.5 -11.9,5.5 -20.6,18 -21.5,31.6 -1.3,18.9 13,34.3 31.9,34.3 18.9,0 36.7,-16.1 36.7,-35 0,-25.6 -26.7,-45.2 -61,-45.2 -43.2,0 -80.7,35.1 -83.8,78.3 -1.5,21.1 5.4,41.1 19.4,56 13.9,14.9 33.2,23.2 54.3,23.2 1.8,0 3.6,-0.1 5.4,-0.2 0,0 0,229.7 0,291.7 0,68.7 42.8,113.1 100.7,113.1 60.3,0 115.7,-50.8 115.7,-115.6 0,-48.4 -31.5,-81.5 -56.5,-81.5 z"
   class="st0" />
	<path
   inkscape:connector-curvature="0"
   style="fill:#333333"
   id="path300"
   d="m 830.2,664.4 c -5.1,-33.6 -33.1,-58.2 -70.8,-58.2 -46,0 -88.8,36.5 -95.7,81.5 -6.9,45 24.8,81.5 70.8,81.5 49.9,0 91.9,-42 96.2,-84 C 848.8,670.2 853,658 853,658 v -37.9 c 0,12.7 -9.7,32.9 -22.8,44.3 z m -64.7,23.9 c 0,29.5 -4.4,67.8 -17.3,67.8 -12.9,0 -12.8,-38.3 -12.8,-67.8 0,-29.5 4.4,-67.8 17.3,-67.8 13,0 12.8,38.4 12.8,67.8 z"
   class="st0" />
</g>
<g
   transform="translate(-354.9,-175.2)"
   id="fill">
	<g
   id="g505">
		<defs
   id="defs304">
			<path
   inkscape:connector-curvature="0"
   d="m 737.6,843.5 c -13.9,0 -26,-4.6 -34.9,-13.2 -3.1,-3 -5.8,-6.3 -8.1,-10.1 5.5,1.7 11.9,2.9 19.4,2.9 0,0 0,0 0,0 16.6,0 35.7,-5.5 56.6,-16.1 l 9,-4.6 c 56.8,-28.7 110.5,-55.8 174.9,-88 12.2,-6.1 23.7,-9.2 34.1,-9.2 16.8,0 27.8,8.1 34.2,14.9 1.7,1.8 3.2,3.7 4.7,5.7 -3.2,-0.6 -6.7,-0.9 -10.5,-0.9 -14.8,0 -32.6,5.2 -52.9,15.5 -26.5,13.4 -60,30 -92.4,46.1 -31.9,15.8 -64.8,32.2 -90.5,45.2 -15.7,7.8 -30.3,11.8 -43.6,11.8 z M 606,560.3 c 0,-40.4 6.1,-59.2 7.1,-62.3 -6.6,3.2 -47.6,23.5 -47.6,72.5 0,32.8 28.8,49.5 47.3,51.2 -1.6,-4.5 -6.8,-24.7 -6.8,-61.4 z m 95.5,-16 c 0,-30.2 -18.1,-46.3 -38.3,-51.9 0.7,2.2 5.8,20.5 5.8,57.9 0,43.3 -5.4,57.7 -5.6,58.4 15.3,-8 38.1,-31 38.1,-64.4 z m 54.5,17.5 38,-18.9 V 326.8 c 0,-9.5 2,-19 5.8,-27.3 -6.7,3.6 -13,8.2 -18.7,13.8 -16.1,15.7 -25,36.9 -25,59.7 z m 97,-48.2 36,-17.9 -0.1,-78.8 c -10.6,5.8 -23.1,9.2 -35.9,9.6 z m 28.9,-165.8 c 0,-6.2 -0.4,-9.2 -0.4,-9.2 0,0 -6.3,-6.3 -14.7,-6.3 -10.4,0 -20.4,7.7 -20.4,19.9 0,9.6 7.9,16.4 15.6,16.4 10.2,-0.1 19.9,-10.2 19.9,-20.8 z M 406,732.6 l 38,-19 V 483 l -38,19.1 z m 221.9,242.3 c 21.7,-20.2 33.6,-47.4 33.6,-76.8 0,-41.1 -33.6,-71.4 -66,-100.6 -31.7,-28.6 -61.7,-55.6 -61.7,-93 0,-5.1 0.6,-10.1 1.6,-14.9 -12.1,13.2 -18.7,30.6 -18.7,49.5 0,37.7 27.2,64.2 56.1,92.1 29.3,28.4 59.6,57.8 59.6,100.4 0,19.8 -5.9,38.2 -16.7,53.1 4.2,-2.9 8.3,-6.2 12.2,-9.8 z M 515.2,888 c 0,-14.7 -11.7,-22 -21.2,-22 -12.8,0 -26.3,10.5 -30.3,25.5 1.2,9.2 10.7,23.2 25.3,23.2 14.1,0 26.2,-12.8 26.2,-26.7 z M 634.5,704.1 c 0,0 -4.1,-4.5 -13.6,-4.5 -9.5,0 -18.9,9 -18.9,18.5 0,8.4 5.7,14.6 13.8,14.6 16.8,0 20.7,-17.3 18.7,-28.6 z M 1091,680.6 V 311 c -10.7,10.2 -23.8,17.7 -38,21.4 v 291.8 c 0,40.7 16.8,72.1 44.3,87.2 -4.2,-8.6 -6.3,-18.9 -6.3,-30.8 z M 915.8,664.1 c -11.9,-1.5 -20.8,-12 -20.8,-25 V 552.8 L 857,572 v 88 c 0,18 9.8,28.3 23.7,28.3 12.5,0.1 25.5,-9.5 35.1,-24.2 z M 1013,612.8 C 1001.9,610.6 994,600.7 994,588 V 503.2 L 955,523 v 89 c 0,18 10.2,26.7 24,26.7 17.5,0.1 28.8,-15.7 34,-25.9 z m 201.1,-48.7 c -3.4,-3.9 -11.2,-7.8 -16.9,-7.8 -11.3,0 -20.7,9.3 -20.7,20.4 0,8.7 6.4,14.9 15.8,14.9 16.2,-0.1 21.8,-19.2 21.8,-27.5 z M 1086.9,220.5 c 0,-8.3 -5.4,-15.9 -14.1,-21.2 0,0 -21.2,6.6 -21.2,24.1 0,9.4 7.8,15.8 15.4,15.8 10.6,-0.1 19.9,-8.9 19.9,-18.7 z M 719,691.3 c 0,-40.4 6.1,-59.2 7.1,-62.3 -6.6,3.2 -47.6,23.5 -47.6,72.5 0,32.8 28.8,49.5 47.3,51.2 -1.6,-4.5 -6.8,-24.7 -6.8,-61.4 z m 95.5,-16 c 0,-30.2 -18.1,-46.3 -38.3,-51.9 0.7,2.2 5.8,20.5 5.8,57.9 0,43.3 -5.4,57.7 -5.6,58.4 15.3,-8 38.1,-31 38.1,-64.4 z"
   id="SVGID_1_" />
		</defs>
		<clipPath
   id="SVGID_2_">
			<use
   height="100%"
   width="100%"
   y="0"
   x="0"
   id="use306"
   style="overflow:visible"
   xlink:href="#SVGID_1_" />
		</clipPath>
		<g
   id="g405"
   clip-path="url(#SVGID_2_)"
   class="st1">
			<line
   id="line309"
   y2="-19.6"
   x2="1274.1"
   y1="448.10001"
   x1="352.20001"
   class="st2" />
			<line
   id="line311"
   y2="13.5"
   x2="1274.1"
   y1="481.10001"
   x1="352.20001"
   class="st2" />
			<line
   id="line313"
   y2="46.599998"
   x2="1274.1"
   y1="514.20001"
   x1="352.20001"
   class="st2" />
			<line
   id="line315"
   y2="79.599998"
   x2="1274.1"
   y1="547.29999"
   x1="352.20001"
   class="st2" />
			<line
   id="line317"
   y2="112.7"
   x2="1274.1"
   y1="580.29999"
   x1="352.20001"
   class="st2" />
			<line
   id="line319"
   y2="145.7"
   x2="1274.1"
   y1="613.40002"
   x1="352.20001"
   class="st2" />
			<line
   id="line321"
   y2="178.8"
   x2="1274.1"
   y1="646.40002"
   x1="352.20001"
   class="st2" />
			<line
   id="line323"
   y2="211.8"
   x2="1274.1"
   y1="679.5"
   x1="352.20001"
   class="st2" />
			<line
   id="line325"
   y2="244.89999"
   x2="1274.1"
   y1="712.59998"
   x1="352.20001"
   class="st2" />
			<line
   id="line327"
   y2="278"
   x2="1274.1"
   y1="745.59998"
   x1="352.20001"
   class="st2" />
			<line
   id="line329"
   y2="311"
   x2="1274.1"
   y1="778.70001"
   x1="352.20001"
   class="st2" />
			<line
   id="line331"
   y2="344.10001"
   x2="1274.1"
   y1="811.70001"
   x1="352.20001"
   class="st2" />
			<line
   id="line333"
   y2="377.10001"
   x2="1274.1"
   y1="844.79999"
   x1="352.20001"
   class="st2" />
			<line
   id="line335"
   y2="410.20001"
   x2="1274.1"
   y1="877.79999"
   x1="352.20001"
   class="st2" />
			<line
   id="line337"
   y2="443.20001"
   x2="1274.1"
   y1="910.90002"
   x1="352.20001"
   class="st2" />
			<line
   id="line339"
   y2="476.29999"
   x2="1274.1"
   y1="944"
   x1="352.20001"
   class="st2" />
			<line
   id="line341"
   y2="509.39999"
   x2="1274.1"
   y1="977"
   x1="352.20001"
   class="st2" />
			<line
   id="line343"
   y2="542.40002"
   x2="1274.1"
   y1="1010.1"
   x1="352.20001"
   class="st2" />
			<line
   id="line345"
   y2="575.5"
   x2="1274.1"
   y1="1043.1"
   x1="352.20001"
   class="st2" />
			<line
   id="line347"
   y2="608.5"
   x2="1274.1"
   y1="1076.2"
   x1="352.20001"
   class="st2" />
			<line
   id="line349"
   y2="641.59998"
   x2="1274.1"
   y1="1109.2"
   x1="352.20001"
   class="st2" />
			<line
   id="line351"
   y2="674.70001"
   x2="1274.1"
   y1="1142.3"
   x1="352.20001"
   class="st2" />
			<line
   id="line353"
   y2="707.70001"
   x2="1274.1"
   y1="1175.4"
   x1="352.20001"
   class="st2" />
			<line
   id="line355"
   y2="740.79999"
   x2="1274.1"
   y1="1208.4"
   x1="352.20001"
   class="st2" />
			<line
   id="line357"
   y2="-3"
   x2="1274.1"
   y1="464.60001"
   x1="352.20001"
   class="st2" />
			<line
   id="line359"
   y2="30"
   x2="1274.1"
   y1="497.70001"
   x1="352.20001"
   class="st2" />
			<line
   id="line361"
   y2="63.099998"
   x2="1274.1"
   y1="530.70001"
   x1="352.20001"
   class="st2" />
			<line
   id="line363"
   y2="96.099998"
   x2="1274.1"
   y1="563.79999"
   x1="352.20001"
   class="st2" />
			<line
   id="line365"
   y2="129.2"
   x2="1274.1"
   y1="596.79999"
   x1="352.20001"
   class="st2" />
			<line
   id="line367"
   y2="162.3"
   x2="1274.1"
   y1="629.90002"
   x1="352.20001"
   class="st2" />
			<line
   id="line369"
   y2="195.3"
   x2="1274.1"
   y1="663"
   x1="352.20001"
   class="st2" />
			<line
   id="line371"
   y2="228.39999"
   x2="1274.1"
   y1="696"
   x1="352.20001"
   class="st2" />
			<line
   id="line373"
   y2="261.39999"
   x2="1274.1"
   y1="729.09998"
   x1="352.20001"
   class="st2" />
			<line
   id="line375"
   y2="294.5"
   x2="1274.1"
   y1="762.09998"
   x1="352.20001"
   class="st2" />
			<line
   id="line377"
   y2="327.5"
   x2="1274.1"
   y1="795.20001"
   x1="352.20001"
   class="st2" />
			<line
   id="line379"
   y2="360.60001"
   x2="1274.1"
   y1="828.29999"
   x1="352.20001"
   class="st2" />
			<line
   id="line381"
   y2="393.70001"
   x2="1274.1"
   y1="861.29999"
   x1="352.20001"
   class="st2" />
			<line
   id="line383"
   y2="426.70001"
   x2="1274.1"
   y1="894.40002"
   x1="352.20001"
   class="st2" />
			<line
   id="line385"
   y2="459.79999"
   x2="1274.1"
   y1="927.40002"
   x1="352.20001"
   class="st2" />
			<line
   id="line387"
   y2="492.79999"
   x2="1274.1"
   y1="960.5"
   x1="352.20001"
   class="st2" />
			<line
   id="line389"
   y2="525.90002"
   x2="1274.1"
   y1="993.5"
   x1="352.20001"
   class="st2" />
			<line
   id="line391"
   y2="559"
   x2="1274.1"
   y1="1026.6"
   x1="352.20001"
   class="st2" />
			<line
   id="line393"
   y2="592"
   x2="1274.1"
   y1="1059.7"
   x1="352.20001"
   class="st2" />
			<line
   id="line395"
   y2="625.09998"
   x2="1274.1"
   y1="1092.7"
   x1="352.20001"
   class="st2" />
			<line
   id="line397"
   y2="658.09998"
   x2="1274.1"
   y1="1125.8"
   x1="352.20001"
   class="st2" />
			<line
   id="line399"
   y2="691.20001"
   x2="1274.1"
   y1="1158.8"
   x1="352.20001"
   class="st2" />
			<line
   id="line401"
   y2="724.20001"
   x2="1274.1"
   y1="1191.9"
   x1="352.20001"
   class="st2" />
			<line
   id="line403"
   y2="757.29999"
   x2="1274.1"
   y1="1224.9"
   x1="352.20001"
   class="st2" />
		</g>
		<g
   id="g503"
   clip-path="url(#SVGID_2_)"
   class="st1">
			<line
   id="line407"
   y2="-30.700001"
   x2="1274.1"
   y1="436.20001"
   x1="352.20001"
   class="st3" />
			<line
   id="line409"
   y2="2.4000001"
   x2="1274.1"
   y1="469.29999"
   x1="352.20001"
   class="st3" />
			<line
   id="line411"
   y2="35.5"
   x2="1274.1"
   y1="502.29999"
   x1="352.20001"
   class="st3" />
			<line
   id="line413"
   y2="68.5"
   x2="1274.1"
   y1="535.40002"
   x1="352.20001"
   class="st3" />
			<line
   id="line415"
   y2="101.6"
   x2="1274.1"
   y1="568.40002"
   x1="352.20001"
   class="st3" />
			<line
   id="line417"
   y2="134.60001"
   x2="1274.1"
   y1="601.5"
   x1="352.20001"
   class="st3" />
			<line
   id="line419"
   y2="167.7"
   x2="1274.1"
   y1="634.59998"
   x1="352.20001"
   class="st3" />
			<line
   id="line421"
   y2="200.7"
   x2="1274.1"
   y1="667.59998"
   x1="352.20001"
   class="st3" />
			<line
   id="line423"
   y2="233.8"
   x2="1274.1"
   y1="700.70001"
   x1="352.20001"
   class="st3" />
			<line
   id="line425"
   y2="266.89999"
   x2="1274.1"
   y1="733.70001"
   x1="352.20001"
   class="st3" />
			<line
   id="line427"
   y2="299.89999"
   x2="1274.1"
   y1="766.79999"
   x1="352.20001"
   class="st3" />
			<line
   id="line429"
   y2="333"
   x2="1274.1"
   y1="799.79999"
   x1="352.20001"
   class="st3" />
			<line
   id="line431"
   y2="366"
   x2="1274.1"
   y1="832.90002"
   x1="352.20001"
   class="st3" />
			<line
   id="line433"
   y2="399.10001"
   x2="1274.1"
   y1="866"
   x1="352.20001"
   class="st3" />
			<line
   id="line435"
   y2="432.10001"
   x2="1274.1"
   y1="899"
   x1="352.20001"
   class="st3" />
			<line
   id="line437"
   y2="465.20001"
   x2="1274.1"
   y1="932.09998"
   x1="352.20001"
   class="st3" />
			<line
   id="line439"
   y2="498.29999"
   x2="1274.1"
   y1="965.09998"
   x1="352.20001"
   class="st3" />
			<line
   id="line441"
   y2="531.29999"
   x2="1274.1"
   y1="998.20001"
   x1="352.20001"
   class="st3" />
			<line
   id="line443"
   y2="564.40002"
   x2="1274.1"
   y1="1031.2"
   x1="352.20001"
   class="st3" />
			<line
   id="line445"
   y2="597.40002"
   x2="1274.1"
   y1="1064.3"
   x1="352.20001"
   class="st3" />
			<line
   id="line447"
   y2="630.5"
   x2="1274.1"
   y1="1097.4"
   x1="352.20001"
   class="st3" />
			<line
   id="line449"
   y2="663.5"
   x2="1274.1"
   y1="1130.4"
   x1="352.20001"
   class="st3" />
			<line
   id="line451"
   y2="696.59998"
   x2="1274.1"
   y1="1163.5"
   x1="352.20001"
   class="st3" />
			<line
   id="line453"
   y2="729.70001"
   x2="1274.1"
   y1="1196.5"
   x1="352.20001"
   class="st3" />
			<line
   id="line455"
   y2="-14.1"
   x2="1274.1"
   y1="452.70001"
   x1="352.20001"
   class="st3" />
			<line
   id="line457"
   y2="18.9"
   x2="1274.1"
   y1="485.79999"
   x1="352.20001"
   class="st3" />
			<line
   id="line459"
   y2="52"
   x2="1274.1"
   y1="518.90002"
   x1="352.20001"
   class="st3" />
			<line
   id="line461"
   y2="85"
   x2="1274.1"
   y1="551.90002"
   x1="352.20001"
   class="st3" />
			<line
   id="line463"
   y2="118.1"
   x2="1274.1"
   y1="585"
   x1="352.20001"
   class="st3" />
			<line
   id="line465"
   y2="151.2"
   x2="1274.1"
   y1="618"
   x1="352.20001"
   class="st3" />
			<line
   id="line467"
   y2="184.2"
   x2="1274.1"
   y1="651.09998"
   x1="352.20001"
   class="st3" />
			<line
   id="line469"
   y2="217.3"
   x2="1274.1"
   y1="684.09998"
   x1="352.20001"
   class="st3" />
			<line
   id="line471"
   y2="250.3"
   x2="1274.1"
   y1="717.20001"
   x1="352.20001"
   class="st3" />
			<line
   id="line473"
   y2="283.39999"
   x2="1274.1"
   y1="750.29999"
   x1="352.20001"
   class="st3" />
			<line
   id="line475"
   y2="316.39999"
   x2="1274.1"
   y1="783.29999"
   x1="352.20001"
   class="st3" />
			<line
   id="line477"
   y2="349.5"
   x2="1274.1"
   y1="816.40002"
   x1="352.20001"
   class="st3" />
			<line
   id="line479"
   y2="382.60001"
   x2="1274.1"
   y1="849.40002"
   x1="352.20001"
   class="st3" />
			<line
   id="line481"
   y2="415.60001"
   x2="1274.1"
   y1="882.5"
   x1="352.20001"
   class="st3" />
			<line
   id="line483"
   y2="448.70001"
   x2="1274.1"
   y1="915.5"
   x1="352.20001"
   class="st3" />
			<line
   id="line485"
   y2="481.70001"
   x2="1274.1"
   y1="948.59998"
   x1="352.20001"
   class="st3" />
			<line
   id="line487"
   y2="514.79999"
   x2="1274.1"
   y1="981.70001"
   x1="352.20001"
   class="st3" />
			<line
   id="line489"
   y2="547.79999"
   x2="1274.1"
   y1="1014.7"
   x1="352.20001"
   class="st3" />
			<line
   id="line491"
   y2="580.90002"
   x2="1274.1"
   y1="1047.8"
   x1="352.20001"
   class="st3" />
			<line
   id="line493"
   y2="614"
   x2="1274.1"
   y1="1080.8"
   x1="352.20001"
   class="st3" />
			<line
   id="line495"
   y2="647"
   x2="1274.1"
   y1="1113.9"
   x1="352.20001"
   class="st3" />
			<line
   id="line497"
   y2="680.09998"
   x2="1274.1"
   y1="1146.9"
   x1="352.20001"
   class="st3" />
			<line
   id="line499"
   y2="713.09998"
   x2="1274.1"
   y1="1180"
   x1="352.20001"
   class="st3" />
			<line
   id="line501"
   y2="746.20001"
   x2="1274.1"
   y1="1213.1"
   x1="352.20001"
   class="st3" />
		</g>
	</g>
</g>
</svg>
